Coordinates
version=1
nRows=11
nColumns=40
inDegrees=yes

Units are S.I. units (second, meters, Newtons, ...)
Angles are in degrees.

endheader
time	pelvis_tilt	pelvis_list	pelvis_rotation	pelvis_tx	pelvis_ty	pelvis_tz	hip_flexion_r	hip_adduction_r	hip_rotation_r	knee_angle_r	knee_angle_r_beta	ankle_angle_r	subtalar_angle_r	mtp_angle_r	hip_flexion_l	hip_adduction_l	hip_rotation_l	knee_angle_l	knee_angle_l_beta	ankle_angle_l	subtalar_angle_l	mtp_angle_l	lumbar_extension	lumbar_bending	lumbar_rotation	arm_flex_r	arm_add_r	arm_rot_r	elbow_flex_r	pro_sup_r	wrist_flex_r	wrist_dev_r	arm_flex_l	arm_add_l	arm_rot_l	elbow_flex_l	pro_sup_l	wrist_flex_l	wrist_dev_l
     29.10000000	     -4.19126423	     -3.71395780	     -6.35009812	      1.10565442	      0.93007733	      0.44908683	     24.71093943	     -0.83348157	    -11.37234256	     12.84906035	     12.84906035	      3.50018206	      7.02936026	      7.18806487	      6.78260890	     -5.91152384	    -10.28169453	     17.85629313	     17.85629313	     14.73255031	    -13.43480778	     -4.15783373	    -10.54937077	      5.16672460	      2.45873804	     -7.78303453	    -14.45941510	     -2.72909815	     27.43477413	     46.73483348	      0.00000000	      0.00000000	     18.18084220	    -15.35526790	     -6.46968607	     74.79576276	     47.14782675	      0.00000000	      0.00000000
     29.11285714	     -4.24985306	     -3.76173673	     -6.36915970	      1.10750693	      0.92921736	      0.45157684	     24.19520222	     -0.52872856	    -11.82326315	     12.00823856	     12.00823856	      3.04169056	      7.69942005	      7.47097002	      6.25350225	     -6.08300517	    -10.33135553	     17.73463467	     17.73463467	     15.12480779	    -13.27643891	     -4.09359020	    -10.34616736	      5.20257669	      2.37933245	     -7.74773492	    -14.35987336	     -2.68497137	     27.58396073	     46.71918675	      0.00000000	      0.00000000	     17.99939902	    -15.29262381	     -6.30754233	     74.51754656	     47.13812603	      0.00000000	      0.00000000
     29.12571429	     -4.28610427	     -3.84400399	     -6.35445108	      1.10952667	      0.92827104	      0.45417496	     23.87195443	     -0.26082977	    -12.07605532	     12.01352984	     12.01352984	      2.72467712	      7.76284615	      7.44014869	      5.73667040	     -6.29387883	    -10.27954174	     17.70126596	     17.70126596	     15.49692628	    -13.26453652	     -4.08406919	    -10.14371658	      5.28904074	      2.33304090	     -7.61826580	    -14.19073483	     -2.65767950	     27.70039219	     46.71096494	      0.00000000	      0.00000000	     17.71791033	    -15.10358702	     -6.15625885	     74.28405070	     47.12444822	      0.00000000	      0.00000000
     29.13857143	     -4.18301760	     -3.98392979	     -6.25864943	      1.11185083	      0.92748006	      0.45692435	     23.12204446	      0.07630449	    -12.33313523	     11.76631216	     11.76631216	      1.28446629	      7.65854459	      3.96200407	      5.15983710	     -6.63336280	    -10.42266095	     17.96709656	     17.96709656	     16.89006963	    -12.34380320	     -2.23557462	    -10.02121435	      5.45524866	      2.50303107	     -7.71535568	    -14.22089994	     -2.49402907	     28.24785165	     46.64066865	      0.00000000	      0.00000000	     18.04124876	    -15.03276002	     -5.38827042	     72.56632175	     47.08559715	      0.00000000	      0.00000000
     29.15142857	     -4.11866354	     -4.12412062	     -6.13639123	      1.11418895	      0.92656225	      0.45976386	     22.74413582	      0.35775875	    -12.19228082	     12.39755680	     12.39755680	      0.82351344	      6.76807302	      2.53364773	      4.61004110	     -6.93139161	    -10.26686636	     18.10100008	     18.10100008	     17.47194053	    -12.28845004	     -1.71230988	     -9.83265626	      5.60281754	      2.26247165	     -7.35262149	    -14.06174567	     -2.52333642	     28.64365709	     46.61498978	      0.00000000	      0.00000000	     17.56891776	    -15.01423620	     -5.09194540	     71.87270456	     47.06729331	      0.00000000	      0.00000000
     29.16428571	     -3.96304636	     -4.33406501	     -5.96434586	      1.11664137	      0.92569196	      0.46272628	     22.12786223	      0.73269227	    -11.95711419	     12.83045540	     12.83045540	     -0.26956593	      5.57007995	     -1.05820673	      4.14059446	     -7.35468731	    -10.08004285	     18.63374103	     18.63374103	     18.56231074	    -12.02213693	     -0.15120739	     -9.74626169	      5.82274769	      2.47251093	     -7.17029433	    -13.97698962	     -2.52268756	     28.93060471	     46.57056658	      0.00000000	      0.00000000	     17.54873379	    -14.67992122	     -4.60822945	     70.57091223	     47.05225821	      0.00000000	      0.00000000
     29.17714286	     -3.86746436	     -4.51082336	     -5.76864211	      1.11906158	      0.92476493	      0.46567255	     21.88578982	      0.97111493	    -11.78811171	     13.95479285	     13.95479285	     -0.04596103	      4.68260026	     -1.93105147	      3.77643056	     -7.74381790	     -9.78995066	     19.15346961	     19.15346961	     19.01406260	    -12.17056289	      0.07267815	     -9.57306311	      6.04562801	      2.21822559	     -6.58654586	    -13.84282528	     -2.56463629	     29.26060273	     46.55644450	      0.00000000	      0.00000000	     16.93783421	    -14.60348343	     -4.39886133	     69.69604302	     47.02857116	      0.00000000	      0.00000000
     29.19000000	     -3.69789113	     -4.73727620	     -5.54363289	      1.12139528	      0.92402758	      0.46868369	     21.55151309	      1.27940227	    -11.52011509	     15.01332665	     15.01332665	      0.28256392	      3.61114911	     -2.84731797	      3.53414187	     -8.22334339	     -9.39067274	     20.02553818	     20.02553818	     19.39973871	    -12.49347480	      0.43726576	     -9.50547016	      6.31029736	      2.10996869	     -5.94275241	    -13.76816885	     -2.57984963	     29.52627576	     46.54462401	      0.00000000	      0.00000000	     16.46058072	    -14.42921452	     -4.22792487	     68.59268069	     47.00362087	      0.00000000	      0.00000000
     29.20285714	     -3.38413969	     -5.00504321	     -5.31372703	      1.12376405	      0.92370952	      0.47168993	     21.02284882	      1.60953819	    -11.38392878	     15.95234687	     15.95234687	      0.85913345	      2.90255090	     -3.46436607	      3.22682242	     -8.74965706	     -8.97919852	     21.05049087	     21.05049087	     19.60583071	    -12.93659051	      0.56562860	     -9.63970843	      6.63439031	      2.16262242	     -5.22893355	    -13.77027983	     -2.59416554	     29.78265274	     46.53782545	      0.00000000	      0.00000000	     15.89808013	    -14.17314887	     -4.07527674	     67.72440536	     46.97859990	      0.00000000	      0.00000000
     29.21571429	     -3.03884643	     -5.16478745	     -5.13081611	      1.12607323	      0.92370850	      0.47475779	     20.44392819	      1.85079188	    -11.16030879	     16.75426624	     16.75426624	      1.50693416	      2.36871769	     -3.93701335	      3.04994459	     -9.19297956	     -8.62603935	     22.34993969	     22.34993969	     19.59996163	    -13.46815730	      0.58868271	     -9.79776742	      6.75416367	      2.24954981	     -4.47200220	    -13.64861007	     -2.59021270	     30.06460164	     46.53025278	      0.00000000	      0.00000000	     15.05547117	    -13.71057385	     -3.86046679	     66.83708159	     46.94518093	      0.00000000	      0.00000000
     29.22857143	     -3.08751082	     -5.33378840	     -4.82959536	      1.12767156	      0.92307635	      0.47777295	     20.53289269	      2.20802422	    -10.44765033	     17.78925868	     17.78925868	      1.92972544	      0.34574709	     -5.00945902	      4.00968153	     -9.74202596	     -7.77314533	     24.83139169	     24.83139169	     19.95167126	    -14.34495578	      1.74915537	     -9.44496442	      7.02390802	      2.30312158	     -3.51878355	    -13.66144973	     -2.53811490	     30.12693514	     46.50894497	      0.00000000	      0.00000000	     15.47587747	    -13.20273699	     -3.98979213	     62.83421898	     46.91900529	      0.00000000	      0.00000000
